<svg xmlns="http://www.w3.org/2000/svg" viewBox="0 0 90 90" width="90" height="90">
  <defs>
    <linearGradient id="bolt" x1="0%" y1="0%" x2="30%" y2="100%">
      <stop offset="0%" style="stop-color:#fef08a"/>
      <stop offset="55%" style="stop-color:#f59e0b"/>
      <stop offset="100%" style="stop-color:#d97706"/>
    </linearGradient>
    <linearGradient id="circle-bg" x1="0%" y1="0%" x2="100%" y2="100%">
      <stop offset="0%" style="stop-color:#1e3a5f;stop-opacity:0.95"/>
      <stop offset="100%" style="stop-color:#0f172a"/>
    </linearGradient>
    <filter id="k-glow" x="-50%" y="-50%" width="200%" height="200%">
      <feGaussianBlur stdDeviation="2.5" result="blur"/>
      <feColorMatrix in="blur" type="matrix"
        values="1 0.7 0 0 0.3  0.7 0.5 0 0 0.1  0 0 0 0 0  0 0 0 0.9 0" result="glow"/>
      <feMerge><feMergeNode in="glow"/><feMergeNode in="SourceGraphic"/></feMerge>
    </filter>
    <filter id="ring-glow">
      <feGaussianBlur stdDeviation="1" result="blur"/>
      <feMerge><feMergeNode in="blur"/><feMergeNode in="SourceGraphic"/></feMerge>
    </filter>
  </defs>

  <!-- Outer dashed ring -->
  <circle cx="45" cy="45" r="42" fill="none" stroke="#3b82f6" stroke-width="0.8"
    stroke-dasharray="3 5" opacity="0.3" filter="url(#ring-glow)"/>

  <!-- Main circle -->
  <circle cx="45" cy="45" r="38" fill="url(#circle-bg)"
    stroke="#2563eb" stroke-width="1.4"/>

  <!-- K as lightning bolt -->
  <g filter="url(#k-glow)" transform="translate(45,45)">
    <rect x="-14" y="-24" width="10" height="48" fill="url(#bolt)" rx="1.5"/>
    <polygon
      points="-4,-24  22,-24  2,-4  9,-4  -4,-1  -14,-1  -14,-7  -1,-7  15,-24"
      fill="url(#bolt)"/>
    <polygon
      points="-4,24  22,24  2,4  9,4  -4,1  -14,1  -14,7  -1,7  15,24"
      fill="url(#bolt)"/>
  </g>
</svg>
